<svg width="31" height="31" viewBox="0 0 31 31" fill="none" xmlns="http://www.w3.org/2000/svg">
<path d="M15.375 1.92188C7.94575 1.92188 1.92188 7.94575 1.92188 15.375C1.92188 22.8042 7.94575 28.8281 15.375 28.8281C22.8042 28.8281 28.8281 22.8042 28.8281 15.375C28.8281 7.94575 22.8042 1.92188 15.375 1.92188ZM15.375 26.5459C9.20698 26.5459 4.2041 21.543 4.2041 15.375C4.2041 9.20698 9.20698 4.2041 15.375 4.2041C21.543 4.2041 26.5459 9.20698 26.5459 15.375C26.5459 21.543 21.543 26.5459 15.375 26.5459Z" fill="white"/>
<path d="M15.375 4.2041C9.20698 4.2041 4.2041 9.20698 4.2041 15.375C4.2041 21.543 9.20698 26.5459 15.375 26.5459C21.543 26.5459 26.5459 21.543 26.5459 15.375C26.5459 9.20698 21.543 4.2041 15.375 4.2041ZM20.534 20.0325C20.5701 20.0776 20.5911 20.1316 20.5911 20.1887C20.5911 20.3238 20.483 20.4289 20.3509 20.4289L18.3689 20.4199L15.387 16.8645L12.4051 20.4229L10.4202 20.4319C10.288 20.4319 10.1799 20.3238 10.1799 20.1917C10.1799 20.1346 10.201 20.0806 10.237 20.0355L14.1438 15.384L10.237 10.7295C10.2007 10.6855 10.1806 10.6304 10.1799 10.5733C10.1799 10.4382 10.288 10.3331 10.4202 10.3331L12.4051 10.3421L15.387 13.8976L18.3719 10.3391L20.3539 10.3301C20.486 10.3301 20.5941 10.4382 20.5941 10.5703C20.5941 10.6274 20.5761 10.6844 20.54 10.7265L16.6332 15.381L20.534 20.0325Z" fill="#262626"/>
<path d="M20.5938 10.5703C20.5938 10.4382 20.4857 10.3301 20.3536 10.3301L18.3717 10.3391L15.3868 13.8976L12.4049 10.3421L10.4199 10.3331C10.2878 10.3331 10.1797 10.4382 10.1797 10.5733C10.1797 10.6304 10.2007 10.6844 10.2367 10.7295L14.1436 15.384L10.2367 20.0355C10.2005 20.0796 10.1803 20.1347 10.1797 20.1917C10.1797 20.3238 10.2878 20.4319 10.4199 20.4319L12.4049 20.4229L15.3868 16.8645L18.3687 20.4199L20.3506 20.4289C20.4827 20.4289 20.5908 20.3238 20.5908 20.1887C20.5908 20.1316 20.5698 20.0776 20.5338 20.0325L16.633 15.381L20.5398 10.7265C20.5758 10.6844 20.5938 10.6274 20.5938 10.5703Z" fill="white"/>
</svg>
