<svg width="65" height="65" viewBox="0 0 65 65" fill="none" xmlns="http://www.w3.org/2000/svg">
<rect width="65" height="65" rx="32.5" fill="white"/>
<path d="M49.0992 31.7624C47.4492 31.4833 45.7305 31.3004 44.3335 31.2509L44.086 31.2426C44.1437 31.1189 44.1864 31.0364 44.2001 31.0226C44.2304 30.9979 44.2551 30.8934 44.2579 30.7916C44.2579 30.7366 44.2826 30.5524 44.3211 30.3104C44.7006 30.3241 45.2011 30.3351 45.7511 30.3379C47.8631 30.3558 50.0741 30.5263 51.5907 30.7944C52.4941 30.9539 52.7925 30.9484 52.127 30.7861C51.4505 30.6211 49.4485 30.3819 47.8535 30.2774C46.6838 30.207 45.5121 30.1786 44.3404 30.1921C44.3679 30.0354 44.3954 29.8621 44.4284 29.6834C44.5549 28.9904 44.5975 28.2946 44.6002 26.91C44.603 24.765 44.4875 24.1738 43.789 22.752C43.5251 22.2043 43.1899 21.6938 42.7921 21.234C43.1317 20.2303 43.1221 18.6793 42.7715 17.318C42.4827 16.2015 42.3796 16.13 41.369 16.3445C40.5096 16.5274 39.8221 16.7763 38.9407 17.2204C38.5227 17.4308 37.948 17.7566 37.5314 18.0151C36.4451 17.6343 35.3217 17.3826 34.1214 17.2451C32.9072 17.1076 29.9276 17.1846 28.8689 17.3799C27.8376 17.5724 26.9054 17.8061 26.0639 18.0811C25.6417 17.8226 25.0326 17.472 24.5954 17.252C23.7099 16.8065 23.0224 16.559 22.1616 16.3761C21.1524 16.1603 21.0479 16.2331 20.7591 17.3496C20.4016 18.7288 20.3989 20.3059 20.7522 21.3069C20.7935 21.421 20.8182 21.5021 20.8279 21.5654C19.3951 23.3694 18.9276 25.3879 19.2384 28.2066C19.3209 28.9395 19.4446 29.6133 19.6206 30.2306C18.7062 30.2251 17.4069 30.2581 16.4664 30.3186C14.8686 30.4245 12.8666 30.6624 12.1901 30.8274C11.526 30.9883 11.8216 30.9924 12.7264 30.8356C14.243 30.5689 16.4554 30.3956 18.5674 30.3819C18.9661 30.3791 19.3374 30.3709 19.6591 30.3626C19.7554 30.6885 19.8654 30.9993 19.9891 31.2949H19.9822C18.5866 31.3444 16.8692 31.5286 15.2179 31.8036C13.9804 32.0126 12.1516 32.4279 11.9371 32.5462C11.7116 32.6726 11.8959 32.6451 12.8542 32.4018C14.6046 31.959 16.8802 31.618 19.699 31.3843L20.0152 31.3568C20.6202 32.7593 21.5511 33.8318 22.8684 34.6705C23.6741 35.182 24.9652 35.7087 25.6156 35.7912C25.7944 35.8132 26.3141 35.9204 26.7706 36.0276C27.2285 36.1349 28.1236 36.2958 28.7589 36.3879H28.7726L28.7396 36.4099C27.9696 36.8086 27.4691 37.4329 27.1309 38.4133C26.9796 38.4587 26.7926 38.5205 26.5891 38.592C25.8604 38.8395 25.5785 38.889 24.8429 38.8945C24.077 38.9 23.8941 38.867 23.4404 38.6525C22.7367 38.3066 22.1477 37.7652 21.7436 37.0933C21.0561 35.9575 19.864 35.1545 18.8699 35.1545C18.0229 35.1545 17.862 35.4983 18.4752 36.0001C19.3992 36.7564 20.0895 37.5264 20.3727 38.1149L20.9186 39.2479C21.0699 39.56 21.3889 39.9835 21.6941 40.2764C22.4119 40.9612 23.1049 41.2884 24.1389 41.4424C24.8319 41.5442 25.0024 41.5442 25.8205 41.4397C26.2151 41.3915 26.5492 41.3352 26.8462 41.265V42.4393C26.8462 44.8675 26.8187 45.6485 26.7225 45.8768C26.5396 46.3113 26.1312 46.7568 25.7366 46.9589C25.342 47.161 25.2196 47.3824 25.386 47.5859C25.4795 47.6959 25.6569 47.7152 26.2522 47.6767C27.3825 47.6079 28.1814 47.1885 28.5897 46.4529C28.719 46.215 28.7492 45.7379 28.7905 43.2629C28.8345 40.5789 28.8537 40.3204 29.0284 39.9354C29.1329 39.7085 29.2855 39.461 29.3721 39.3937C29.5137 39.2754 29.5234 39.5092 29.5234 42.7212C29.5234 46.2659 29.4862 46.6949 29.1315 47.3755C29.0517 47.5309 28.9005 47.733 28.7946 47.8293C28.609 47.9984 28.5306 48.4315 28.6599 48.5622C28.873 48.7739 29.9414 48.4412 30.5244 47.9819C31.5171 47.1954 31.6354 46.545 31.6436 41.8494L31.6477 39.0925L31.9502 39.12L32.25 39.1475L32.2995 42.75C32.3545 46.809 32.3627 46.8682 33.053 47.6519C33.4449 48.0947 33.8395 48.3394 34.483 48.5319C35.341 48.789 35.5995 48.3903 35.022 47.6987C34.3936 46.9452 34.362 46.6578 34.3977 42.2055C34.4211 39.351 34.4211 39.351 34.604 39.5174C34.9931 39.8694 35.0674 40.4469 35.0674 43.124C35.0674 46.4488 35.1636 46.765 36.3365 47.3453C36.8865 47.6134 37.0377 47.6478 37.7417 47.6478C38.4897 47.6519 38.5351 47.6409 38.5626 47.4457C38.586 47.2875 38.4939 47.1803 38.1446 46.9672C37.7135 46.7126 37.373 46.3294 37.1711 45.8713C37.0955 45.698 37.0446 44.554 37.0102 42.2C36.9607 38.9083 36.9497 38.7584 36.7449 38.2428C36.4699 37.5498 36.0464 37.0025 35.5115 36.6395C35.374 36.5488 35.2337 36.4745 35.0536 36.4168C35.2736 36.3948 35.4895 36.3714 35.6971 36.3412C37.8586 36.0524 39.0012 35.8132 39.9184 35.4584C41.8571 34.7118 43.1702 33.4715 43.8811 31.7129C43.9444 31.5561 44.0076 31.4076 44.0599 31.2866L44.6099 31.3334C47.4286 31.5713 49.7042 31.9109 51.4546 32.355C52.4144 32.5998 52.5959 32.63 52.3731 32.5008C52.1641 32.3839 50.3354 31.97 49.0979 31.7624H49.0992ZM40.83 31.7184C40.5096 32.4224 39.6159 33.3272 38.894 33.6819C38.1817 34.0339 37.0652 34.3007 35.8002 34.4299C34.934 34.5179 30.1119 34.544 29.3157 34.4656C26.6799 34.2071 25.2045 33.6998 24.1141 32.6836C23.0829 31.7184 22.6016 30.408 22.6841 28.7951C22.7391 27.7859 22.9825 27.152 23.6191 26.382C24.1966 25.6808 24.8071 25.2476 25.5249 25.0276C26.1271 24.8434 27.9724 24.8269 30.4501 24.9864C31.546 25.0551 32.4521 25.0551 33.5466 24.9864C36.1399 24.8214 37.871 24.8406 38.5104 25.0386C39.5141 25.3494 40.4312 26.1854 40.9812 27.2991C41.2287 27.7969 41.2782 28.0086 41.314 28.7773C41.3635 29.836 41.1806 30.9594 40.8327 31.717L40.83 31.7184ZM27.7537 27.1726C26.2784 26.9141 25.4355 29.4414 26.5671 30.7298C27.1034 31.3403 27.5805 31.4406 28.1759 31.0694C28.73 30.7256 29.0284 30.0794 29.0284 29.2434C29.0284 28.1269 28.5224 27.3074 27.7524 27.1699L27.7537 27.1726ZM36.7091 27.3239C35.2337 27.0654 34.3895 29.5885 35.5211 30.8796C36.0615 31.4915 36.5386 31.5946 37.1354 31.2193C37.6854 30.8755 37.9879 30.2293 37.9879 29.3933C37.9879 28.2823 37.4791 27.46 36.7091 27.3239ZM32.7409 32.2904C32.7079 32.3921 32.5539 32.5434 32.3971 32.6245C32.0052 32.8266 31.7234 32.7565 31.3067 32.377C31.0496 32.146 30.9327 32.0236 30.853 32.267C30.7815 32.4925 31.238 32.9449 31.5927 33.0838C31.9172 33.2144 32.1496 33.2185 32.5002 33.07C32.8509 32.9256 33.1561 32.5338 33.1561 32.2794C33.1561 32.0429 32.8165 32.0539 32.7395 32.2931L32.7409 32.2904ZM32.3036 31.4998C32.5277 31.3004 32.5786 30.8948 32.3641 30.6775C32.1496 30.4603 31.7137 30.4946 31.5432 30.7366C31.3439 31.0199 31.4497 31.2358 31.5914 31.4654C31.8114 31.6359 32.107 31.6716 32.3022 31.4984L32.3036 31.4998Z" fill="#141414"/>
</svg>
