<svg width="42" height="33" viewBox="0 0 42 33" fill="none" xmlns="http://www.w3.org/2000/svg">
<path d="M38.0995 15.7625C36.4495 15.4833 34.7307 15.3005 33.3337 15.251L33.0862 15.2427C33.144 15.119 33.1866 15.0365 33.2004 15.0227C33.2306 14.998 33.2554 14.8935 33.2581 14.7917C33.2581 14.7367 33.2829 14.5525 33.3214 14.3105C33.7009 14.3242 34.2014 14.3352 34.7514 14.338C36.8634 14.3558 39.0744 14.5263 40.591 14.7945C41.4944 14.954 41.7927 14.9485 41.1272 14.7862C40.4507 14.6212 38.4487 14.382 36.8537 14.2775C35.6841 14.2071 34.5123 14.1786 33.3406 14.1922C33.3681 14.0355 33.3956 13.8622 33.4286 13.6835C33.5551 12.9905 33.5977 12.2947 33.6005 10.9101C33.6032 8.76508 33.4877 8.17383 32.7892 6.75208C32.5254 6.20432 32.1902 5.69388 31.7924 5.23408C32.132 4.23033 32.1224 2.67933 31.7717 1.31808C31.483 0.201582 31.3799 0.130083 30.3692 0.344583C29.5099 0.527458 28.8224 0.776333 27.941 1.22046C27.523 1.43083 26.9482 1.75671 26.5316 2.01521C25.4454 1.63433 24.322 1.38271 23.1216 1.24521C21.9075 1.10771 18.9279 1.18471 17.8691 1.37996C16.8379 1.57246 15.9056 1.80621 15.0641 2.08121C14.642 1.82271 14.0329 1.47208 13.5956 1.25208C12.7101 0.806582 12.0226 0.559083 11.1619 0.376208C10.1526 0.160333 10.0481 0.233208 9.75936 1.34971C9.40186 2.72883 9.39911 4.30596 9.75249 5.30696C9.79374 5.42108 9.81849 5.50221 9.82811 5.56546C8.39536 7.36946 7.92786 9.38796 8.23861 12.2067C8.32111 12.9396 8.44486 13.6133 8.62086 14.2307C7.70649 14.2252 6.40711 14.2582 5.46661 14.3187C3.86886 14.4246 1.86686 14.6625 1.19036 14.8275C0.526238 14.9883 0.821863 14.9925 1.72661 14.8357C3.24324 14.569 5.45561 14.3957 7.56761 14.382C7.96636 14.3792 8.33761 14.371 8.65936 14.3627C8.75561 14.6886 8.86561 14.9993 8.98936 15.295H8.98249C7.58686 15.3445 5.86949 15.5287 4.21811 15.8037C2.98061 16.0127 1.15186 16.428 0.937363 16.5462C0.711863 16.6727 0.896113 16.6452 1.85449 16.4018C3.60486 15.9591 5.88049 15.6181 8.69924 15.3843L9.01549 15.3568C9.62049 16.7593 10.5514 17.8318 11.8686 18.6706C12.6744 19.1821 13.9655 19.7087 14.6159 19.7912C14.7946 19.8132 15.3144 19.9205 15.7709 20.0277C16.2287 20.135 17.1239 20.2958 17.7591 20.388H17.7729L17.7399 20.41C16.9699 20.8087 16.4694 21.433 16.1311 22.4133C15.9799 22.4587 15.7929 22.5206 15.5894 22.5921C14.8606 22.8396 14.5787 22.8891 13.8431 22.8946C13.0772 22.9001 12.8944 22.8671 12.4406 22.6526C11.737 22.3066 11.1479 21.7653 10.7439 21.0933C10.0564 19.9576 8.86424 19.1546 7.87011 19.1546C7.02311 19.1546 6.86224 19.4983 7.47549 20.0002C8.39949 20.7565 9.08974 21.5265 9.37299 22.115L9.91886 23.248C10.0701 23.5601 10.3891 23.9836 10.6944 24.2765C11.4121 24.9612 12.1051 25.2885 13.1391 25.4425C13.8321 25.5442 14.0026 25.5442 14.8207 25.4397C15.2154 25.3916 15.5495 25.3352 15.8465 25.2651V26.4393C15.8465 28.8676 15.819 29.6486 15.7227 29.8768C15.5399 30.3113 15.1315 30.7568 14.7369 30.959C14.3422 31.1611 14.2199 31.3825 14.3862 31.586C14.4797 31.696 14.6571 31.7152 15.2525 31.6767C16.3827 31.608 17.1816 31.1886 17.59 30.453C17.7192 30.2151 17.7495 29.738 17.7907 27.263C17.8347 24.579 17.854 24.3205 18.0286 23.9355C18.1331 23.7086 18.2857 23.4611 18.3724 23.3937C18.514 23.2755 18.5236 23.5092 18.5236 26.7212C18.5236 30.266 18.4865 30.695 18.1317 31.3756C18.052 31.531 17.9007 31.7331 17.7949 31.8293C17.6092 31.9985 17.5309 32.4316 17.6601 32.5622C17.8732 32.774 18.9416 32.4412 19.5246 31.982C20.5174 31.1955 20.6356 30.5451 20.6439 25.8495L20.648 23.0926L20.9505 23.1201L21.2502 23.1476L21.2997 26.7501C21.3547 30.8091 21.363 30.8682 22.0532 31.652C22.4451 32.0947 22.8397 32.3395 23.4832 32.532C24.3412 32.7891 24.5997 32.3903 24.0222 31.6987C23.3939 30.9452 23.3622 30.6578 23.398 26.2056C23.4214 23.3511 23.4214 23.3511 23.6042 23.5175C23.9934 23.8695 24.0676 24.447 24.0676 27.1241C24.0676 30.4488 24.1639 30.7651 25.3367 31.3453C25.8867 31.6135 26.038 31.6478 26.742 31.6478C27.49 31.652 27.5354 31.641 27.5629 31.4457C27.5862 31.2876 27.4941 31.1803 27.1449 30.9672C26.7138 30.7127 26.3733 30.3294 26.1714 29.8713C26.0957 29.6981 26.0449 28.5541 26.0105 26.2001C25.961 22.9083 25.95 22.7585 25.7451 22.2428C25.4701 21.5498 25.0466 21.0026 24.5117 20.6396C24.3742 20.5488 24.234 20.4746 24.0539 20.4168C24.2739 20.3948 24.4897 20.3715 24.6974 20.3412C26.8589 20.0525 28.0015 19.8132 28.9186 19.4585C30.8574 18.7118 32.1705 17.4716 32.8814 15.713C32.9446 15.5562 33.0079 15.4077 33.0601 15.2867L33.6101 15.3335C36.4289 15.5713 38.7045 15.911 40.4549 16.3551C41.4146 16.5998 41.5961 16.6301 41.3734 16.5008C41.1644 16.384 39.3356 15.9701 38.0981 15.7625H38.0995ZM29.8302 15.7185C29.5099 16.4225 28.6161 17.3272 27.8942 17.682C27.182 18.034 26.0655 18.3007 24.8005 18.43C23.9342 18.518 19.1121 18.5441 18.316 18.4657C15.6801 18.2072 14.2047 17.6998 13.1144 16.6837C12.0831 15.7185 11.6019 14.4081 11.6844 12.7952C11.7394 11.786 11.9827 11.1521 12.6194 10.3821C13.1969 9.68083 13.8074 9.24771 14.5251 9.02771C15.1274 8.84346 16.9726 8.82696 19.4504 8.98646C20.5462 9.05521 21.4524 9.05521 22.5469 8.98646C25.1401 8.82146 26.8712 8.84071 27.5106 9.03871C28.5144 9.34946 29.4315 10.1855 29.9815 11.2992C30.229 11.797 30.2785 12.0087 30.3142 12.7773C30.3637 13.8361 30.1809 14.9595 29.833 15.7171L29.8302 15.7185ZM16.754 11.1727C15.2786 10.9142 14.4357 13.4415 15.5674 14.7298C16.1036 15.3403 16.5807 15.4407 17.1761 15.0695C17.7302 14.7257 18.0286 14.0795 18.0286 13.2435C18.0286 12.127 17.5226 11.3075 16.7526 11.17L16.754 11.1727ZM25.7094 11.324C24.234 11.0655 23.3897 13.5886 24.5214 14.8797C25.0617 15.4916 25.5389 15.5947 26.1356 15.2193C26.6856 14.8756 26.9881 14.2293 26.9881 13.3933C26.9881 12.2823 26.4794 11.4601 25.7094 11.324ZM21.7411 16.2905C21.7081 16.3922 21.5541 16.5435 21.3974 16.6246C21.0055 16.8267 20.7236 16.7566 20.307 16.3771C20.0499 16.1461 19.933 16.0237 19.8532 16.2671C19.7817 16.4926 20.2382 16.945 20.593 17.0838C20.9175 17.2145 21.1499 17.2186 21.5005 17.0701C21.8511 16.9257 22.1564 16.5338 22.1564 16.2795C22.1564 16.043 21.8167 16.054 21.7397 16.2932L21.7411 16.2905ZM21.3039 15.4998C21.528 15.3005 21.5789 14.8948 21.3644 14.6776C21.1499 14.4603 20.714 14.4947 20.5435 14.7367C20.3441 15.02 20.45 15.2358 20.5916 15.4655C20.8116 15.636 21.1072 15.6717 21.3025 15.4985L21.3039 15.4998Z" fill="white"/>
</svg>
