<svg width="65" height="65" viewBox="0 0 65 65" fill="none" xmlns="http://www.w3.org/2000/svg">
<rect width="65" height="65" rx="32.5" fill="#262626"/>
<path d="M49.0995 31.7625C47.4495 31.4833 45.7307 31.3005 44.3337 31.251L44.0862 31.2427C44.144 31.119 44.1866 31.0365 44.2004 31.0227C44.2306 30.998 44.2554 30.8935 44.2581 30.7917C44.2581 30.7367 44.2829 30.5525 44.3214 30.3105C44.7009 30.3242 45.2014 30.3352 45.7514 30.338C47.8634 30.3558 50.0744 30.5263 51.591 30.7945C52.4944 30.954 52.7927 30.9485 52.1272 30.7862C51.4507 30.6212 49.4487 30.382 47.8537 30.2775C46.6841 30.2071 45.5123 30.1786 44.3406 30.1922C44.3681 30.0355 44.3956 29.8622 44.4286 29.6835C44.5551 28.9905 44.5977 28.2947 44.6005 26.9101C44.6032 24.7651 44.4877 24.1738 43.7892 22.7521C43.5254 22.2043 43.1902 21.6939 42.7924 21.2341C43.132 20.2303 43.1224 18.6793 42.7717 17.3181C42.483 16.2016 42.3799 16.1301 41.3692 16.3446C40.5099 16.5275 39.8224 16.7763 38.941 17.2205C38.523 17.4308 37.9482 17.7567 37.5316 18.0152C36.4454 17.6343 35.322 17.3827 34.1216 17.2452C32.9075 17.1077 29.9279 17.1847 28.8691 17.38C27.8379 17.5725 26.9056 17.8062 26.0641 18.0812C25.642 17.8227 25.0329 17.4721 24.5956 17.2521C23.7101 16.8066 23.0226 16.5591 22.1619 16.3762C21.1526 16.1603 21.0481 16.2332 20.7594 17.3497C20.4019 18.7288 20.3991 20.306 20.7525 21.307C20.7937 21.4211 20.8185 21.5022 20.8281 21.5655C19.3954 23.3695 18.9279 25.388 19.2386 28.2067C19.3211 28.9396 19.4449 29.6133 19.6209 30.2307C18.7065 30.2252 17.4071 30.2582 16.4666 30.3187C14.8689 30.4246 12.8669 30.6625 12.1904 30.8275C11.5262 30.9883 11.8219 30.9925 12.7266 30.8357C14.2432 30.569 16.4556 30.3957 18.5676 30.382C18.9664 30.3792 19.3376 30.371 19.6594 30.3627C19.7556 30.6886 19.8656 30.9993 19.9894 31.295H19.9825C18.5869 31.3445 16.8695 31.5287 15.2181 31.8037C13.9806 32.0127 12.1519 32.428 11.9374 32.5462C11.7119 32.6727 11.8961 32.6452 12.8545 32.4018C14.6049 31.9591 16.8805 31.6181 19.6992 31.3843L20.0155 31.3568C20.6205 32.7593 21.5514 33.8318 22.8686 34.6706C23.6744 35.1821 24.9655 35.7087 25.6159 35.7912C25.7946 35.8132 26.3144 35.9205 26.7709 36.0277C27.2287 36.135 28.1239 36.2958 28.7591 36.388H28.7729L28.7399 36.41C27.9699 36.8087 27.4694 37.433 27.1311 38.4133C26.9799 38.4587 26.7929 38.5206 26.5894 38.5921C25.8606 38.8396 25.5787 38.8891 24.8431 38.8946C24.0772 38.9001 23.8944 38.8671 23.4406 38.6526C22.737 38.3066 22.1479 37.7653 21.7439 37.0933C21.0564 35.9576 19.8642 35.1546 18.8701 35.1546C18.0231 35.1546 17.8622 35.4983 18.4755 36.0002C19.3995 36.7565 20.0897 37.5265 20.373 38.115L20.9189 39.248C21.0701 39.5601 21.3891 39.9836 21.6944 40.2765C22.4121 40.9612 23.1051 41.2885 24.1391 41.4425C24.8321 41.5442 25.0026 41.5442 25.8207 41.4397C26.2154 41.3916 26.5495 41.3352 26.8465 41.2651V42.4393C26.8465 44.8676 26.819 45.6486 26.7227 45.8768C26.5399 46.3113 26.1315 46.7568 25.7369 46.959C25.3422 47.1611 25.2199 47.3825 25.3862 47.586C25.4797 47.696 25.6571 47.7152 26.2525 47.6767C27.3827 47.608 28.1816 47.1886 28.59 46.453C28.7192 46.2151 28.7495 45.738 28.7907 43.263C28.8347 40.579 28.854 40.3205 29.0286 39.9355C29.1331 39.7086 29.2857 39.4611 29.3724 39.3937C29.514 39.2755 29.5236 39.5092 29.5236 42.7212C29.5236 46.266 29.4865 46.695 29.1317 47.3756C29.052 47.531 28.9007 47.7331 28.7949 47.8293C28.6092 47.9985 28.5309 48.4316 28.6601 48.5622C28.8732 48.774 29.9416 48.4412 30.5246 47.982C31.5174 47.1955 31.6356 46.5451 31.6439 41.8495L31.648 39.0926L31.9505 39.1201L32.2502 39.1476L32.2997 42.7501C32.3547 46.8091 32.363 46.8682 33.0532 47.652C33.4451 48.0947 33.8397 48.3395 34.4832 48.532C35.3412 48.7891 35.5997 48.3903 35.0222 47.6987C34.3939 46.9452 34.3622 46.6578 34.398 42.2056C34.4214 39.3511 34.4214 39.3511 34.6042 39.5175C34.9934 39.8695 35.0676 40.447 35.0676 43.1241C35.0676 46.4488 35.1639 46.7651 36.3367 47.3453C36.8867 47.6135 37.038 47.6478 37.742 47.6478C38.49 47.652 38.5354 47.641 38.5629 47.4457C38.5862 47.2876 38.4941 47.1803 38.1449 46.9672C37.7138 46.7127 37.3733 46.3294 37.1714 45.8713C37.0957 45.6981 37.0449 44.5541 37.0105 42.2001C36.961 38.9083 36.95 38.7585 36.7451 38.2428C36.4701 37.5498 36.0466 37.0026 35.5117 36.6396C35.3742 36.5488 35.234 36.4746 35.0539 36.4168C35.2739 36.3948 35.4897 36.3715 35.6974 36.3412C37.8589 36.0525 39.0015 35.8132 39.9186 35.4585C41.8574 34.7118 43.1705 33.4716 43.8814 31.713C43.9446 31.5562 44.0079 31.4077 44.0601 31.2867L44.6101 31.3335C47.4289 31.5713 49.7045 31.911 51.4549 32.3551C52.4146 32.5998 52.5961 32.6301 52.3734 32.5008C52.1644 32.384 50.3356 31.9701 49.0981 31.7625H49.0995ZM40.8302 31.7185C40.5099 32.4225 39.6161 33.3272 38.8942 33.682C38.182 34.034 37.0655 34.3007 35.8005 34.43C34.9342 34.518 30.1121 34.5441 29.316 34.4657C26.6801 34.2072 25.2047 33.6998 24.1144 32.6837C23.0831 31.7185 22.6019 30.4081 22.6844 28.7952C22.7394 27.786 22.9827 27.1521 23.6194 26.3821C24.1969 25.6808 24.8074 25.2477 25.5251 25.0277C26.1274 24.8435 27.9726 24.827 30.4504 24.9865C31.5462 25.0552 32.4524 25.0552 33.5469 24.9865C36.1401 24.8215 37.8712 24.8407 38.5106 25.0387C39.5144 25.3495 40.4315 26.1855 40.9815 27.2992C41.229 27.797 41.2785 28.0087 41.3142 28.7773C41.3637 29.8361 41.1809 30.9595 40.833 31.7171L40.8302 31.7185ZM27.754 27.1727C26.2786 26.9142 25.4357 29.4415 26.5674 30.7298C27.1036 31.3403 27.5807 31.4407 28.1761 31.0695C28.7302 30.7257 29.0286 30.0795 29.0286 29.2435C29.0286 28.127 28.5226 27.3075 27.7526 27.17L27.754 27.1727ZM36.7094 27.324C35.234 27.0655 34.3897 29.5886 35.5214 30.8797C36.0617 31.4916 36.5389 31.5947 37.1356 31.2193C37.6856 30.8756 37.9881 30.2293 37.9881 29.3933C37.9881 28.2823 37.4794 27.4601 36.7094 27.324ZM32.7411 32.2905C32.7081 32.3922 32.5541 32.5435 32.3974 32.6246C32.0055 32.8267 31.7236 32.7566 31.307 32.3771C31.0499 32.1461 30.933 32.0237 30.8532 32.2671C30.7817 32.4926 31.2382 32.945 31.593 33.0838C31.9175 33.2145 32.1499 33.2186 32.5005 33.0701C32.8511 32.9257 33.1564 32.5338 33.1564 32.2795C33.1564 32.043 32.8167 32.054 32.7397 32.2932L32.7411 32.2905ZM32.3039 31.4998C32.528 31.3005 32.5789 30.8948 32.3644 30.6776C32.1499 30.4603 31.714 30.4947 31.5435 30.7367C31.3441 31.02 31.45 31.2358 31.5916 31.4655C31.8116 31.636 32.1072 31.6717 32.3025 31.4985L32.3039 31.4998Z" fill="white"/>
</svg>
