<svg width="30" height="25" viewBox="0 0 30 25" fill="none" xmlns="http://www.w3.org/2000/svg">
<path d="M9.51161e-09 6.98727L14.5282 14.5432C14.6739 14.619 14.8357 14.6585 15 14.6585C15.1643 14.6585 15.3261 14.619 15.4718 14.5432L30 6.98864V20.1136C30.0001 21.2456 29.567 22.3348 28.7895 23.1576C28.0121 23.9804 26.9493 24.4745 25.8191 24.5386L25.5682 24.5455H4.43182C3.29981 24.5455 2.21069 24.1124 1.38787 23.335C0.565046 22.5576 0.0709073 21.4947 0.00681835 20.3645L9.51161e-09 20.1136V6.98727ZM4.43182 9.51162e-09H25.5682C26.7002 -7.41092e-05 27.7893 0.433028 28.6121 1.21046C29.435 1.98789 29.9291 3.05072 29.9932 4.18091L30 4.43182V4.68273L15 12.4827L9.51161e-09 4.68273V4.43182C-7.41092e-05 3.29981 0.433028 2.21069 1.21046 1.38787C1.98789 0.565046 3.05072 0.0709073 4.18091 0.00681835L4.43182 9.51162e-09H25.5682H4.43182Z" fill="white"/>
</svg>
