<svg width="65" height="65" viewBox="0 0 65 65" fill="none" xmlns="http://www.w3.org/2000/svg">
<rect width="65" height="65" rx="32.5" fill="#262626"/>
<path d="M18 27.9873L32.5282 35.5432C32.6739 35.619 32.8357 35.6585 33 35.6585C33.1643 35.6585 33.3261 35.619 33.4718 35.5432L48 27.9886V41.1136C48.0001 42.2456 47.567 43.3348 46.7895 44.1576C46.0121 44.9804 44.9493 45.4745 43.8191 45.5386L43.5682 45.5455H22.4318C21.2998 45.5455 20.2107 45.1124 19.3879 44.335C18.565 43.5576 18.0709 42.4947 18.0068 41.3645L18 41.1136V27.9873ZM22.4318 21H43.5682C44.7002 20.9999 45.7893 21.433 46.6121 22.2105C47.435 22.9879 47.9291 24.0507 47.9932 25.1809L48 25.4318V25.6827L33 33.4827L18 25.6827V25.4318C17.9999 24.2998 18.433 23.2107 19.2105 22.3879C19.9879 21.565 21.0507 21.0709 22.1809 21.0068L22.4318 21H43.5682H22.4318Z" fill="white"/>
</svg>
