<svg width="72" height="72" viewBox="0 0 72 72" fill="none" xmlns="http://www.w3.org/2000/svg">
<path d="M13.6874 60.7772L8.66895 4.46875H63.8312L58.8061 60.7683L36.2166 67.0312L13.6874 60.7772Z" fill="#1572B6"/>
<path d="M36.25 62.2453L54.5048 57.1844L58.7993 9.07385H36.25V62.2453Z" fill="#33A9DC"/>
<path d="M36.25 29.4737H45.3886L46.0187 22.4019H36.25V15.4955H53.5664L53.4011 17.3478L51.7052 36.3802H36.25V29.4737Z" fill="white"/>
<path d="M36.2926 47.409L36.2613 47.418L28.5706 45.34L28.079 39.8323H21.1458L22.1132 50.6757L36.2591 54.6037L36.2926 54.5948V47.409Z" fill="#EBEBEB"/>
<path d="M44.8009 36.087L43.9697 45.3351L36.2678 47.4131V54.5988L50.4248 50.6753L50.5298 49.5089L51.7297 36.087H44.8009Z" fill="white"/>
<path d="M36.2746 15.4955V22.4019H19.5928L19.4543 20.849L19.1392 17.3478L18.9739 15.4955H36.2746ZM36.2501 29.4737V36.3802H28.6554L28.5169 34.8273L28.2041 31.326L28.0387 29.4737H36.2501Z" fill="#EBEBEB"/>
</svg>
