<svg width="58" height="64" viewBox="0 0 58 64" fill="none" xmlns="http://www.w3.org/2000/svg">
<path d="M28.9619 64C28.111 64 27.2474 63.7714 26.4981 63.3396L18.6624 58.7042C17.4941 58.0439 18.0656 57.8153 18.4466 57.6883C20.0086 57.1422 20.3261 57.0279 21.9898 56.0754C22.1676 55.9738 22.3962 56.0119 22.5739 56.1262L28.5936 59.6948C28.8095 59.8218 29.1143 59.8218 29.3175 59.6948L52.7738 46.157C52.9897 46.03 53.1294 45.776 53.1294 45.522V18.4463C53.1294 18.1796 52.9897 17.9383 52.7611 17.7986L29.3175 4.27344C29.1016 4.14644 28.8095 4.14644 28.5936 4.27344L5.1627 17.8113C4.9341 17.9383 4.79441 18.1923 4.79441 18.459V45.522C4.79441 45.776 4.9341 46.03 5.1627 46.1443L11.5887 49.8526C15.0811 51.5924 17.2147 49.5478 17.2147 47.4777V20.7576C17.2147 20.3766 17.5195 20.0845 17.9005 20.0845H20.8722C21.2405 20.0845 21.558 20.3766 21.558 20.7576V47.4904C21.558 52.1385 19.018 54.8054 14.6113 54.8054C13.2524 54.8054 12.1856 54.8054 9.21389 53.3323L3.06725 49.7891C1.54329 48.9128 0.603516 47.2745 0.603516 45.5093V18.4463C0.603516 16.6937 1.54329 15.0428 3.06725 14.1665L26.4981 0.628634C27.984 -0.209545 29.9525 -0.209545 31.4256 0.628634L54.8819 14.1792C56.4059 15.0555 57.3456 16.6937 57.3456 18.459V45.522C57.3456 47.2745 56.4059 48.9128 54.8819 49.8018L31.4256 63.3396C30.6763 63.7714 29.8255 64 28.9619 64ZM47.8971 37.318C47.8971 32.2508 44.4682 30.9047 37.2675 29.9522C29.9779 28.987 29.2413 28.4917 29.2413 26.79C29.2413 25.3803 29.8636 23.5007 35.2609 23.5007C40.0741 23.5007 41.8521 24.5421 42.5886 27.7932C42.6521 28.098 42.9315 28.3266 43.249 28.3266H46.2969C46.4874 28.3266 46.6652 28.2504 46.7922 28.1107C46.9192 27.971 46.9827 27.7805 46.97 27.59C46.5001 21.9895 42.7791 19.386 35.2609 19.386C28.5682 19.386 24.5805 22.2054 24.5805 26.9424C24.5805 32.073 28.5555 33.4954 34.9688 34.1304C42.6521 34.8797 43.249 36.0099 43.249 37.5212C43.249 40.1373 41.1409 41.2549 36.2007 41.2549C29.9906 41.2549 28.6317 39.6928 28.1745 36.6068C28.1237 36.2766 27.8443 36.0353 27.5014 36.0353H24.4662C24.0852 36.0353 23.7931 36.3401 23.7931 36.7084C23.7931 40.658 25.9394 45.3696 36.2134 45.3696C43.63 45.3569 47.8971 42.4233 47.8971 37.318Z" fill="#009639"/>
</svg>
