<svg width="85" height="85" viewBox="0 0 85 85" fill="none" xmlns="http://www.w3.org/2000/svg">
<path d="M48.8042 64.7775C48.8042 65.2025 49.3354 64.7775 48.8042 64.7775V64.7775ZM36.9396 55.215C38.3208 55.8171 35.8417 53.09 36.9396 55.215V55.215ZM19.125 56.2066C19.6563 57.1275 19.125 55.7816 19.125 56.2066V56.2066ZM38.9583 57.5879C38.0021 56.1004 38.25 57.8004 38.9583 58.7212C40.6583 60.3858 39.5958 57.8004 38.9583 57.5879Z" fill="#E3E3E3"/>
<path d="M71.6833 67.5041C69.8062 69.7353 68.1416 67.2562 65.9104 67.9645C62.0145 67.9645 66.2291 66.1937 66.1229 64.4228C64.0687 62.8291 61.7312 66.5832 60.3854 67.6103C57.1187 67.0463 53.9398 66.0581 50.9291 64.6707C47.4227 63.0334 44.2888 60.695 41.7208 57.7999C38.8474 54.9362 36.5931 51.5127 35.0979 47.7416C33.1863 41.132 32.1854 34.2926 32.1229 27.4124C32.3708 22.8082 37.2229 27.9082 39.2062 26.2437C38.4624 23.8707 34.6374 23.127 32.5124 22.1353C30.4583 22.1353 29.7145 20.1874 27.5541 20.0457C27.5541 17.4603 23.552 18.877 22.0291 17.0707C23.5166 13.2457 17.177 17.0707 17.6729 13.8478C19.727 9.59783 11.3687 10.3062 14.8395 14.0603C18.2041 15.9728 11.5458 17.3541 13.4937 18.6291C13.6584 18.9491 13.7377 19.3062 13.7238 19.6658C13.71 20.0254 13.6035 20.3753 13.4147 20.6817C13.2259 20.9881 12.9611 21.2405 12.6461 21.4145C12.3311 21.5885 11.9765 21.6782 11.6166 21.6749C8.99578 21.9228 9.24369 25.5353 11.8291 23.6228C14.6979 22.7374 12.3249 24.0124 10.9437 24.2603C10.2148 24.3712 9.52316 24.6555 8.92698 25.0892C8.33081 25.523 7.84754 26.0937 7.51781 26.7531C7.18809 27.4126 7.02155 28.1416 7.03222 28.8788C7.04289 29.616 7.23044 30.3399 7.57911 30.9895C8.9627 34.9648 10.1448 39.0075 11.1208 43.102C13.3069 49.3088 16.5412 55.0948 20.6833 60.2082C22.8613 62.9418 25.4405 65.33 28.3333 67.2916C30.9894 69.1212 33.8855 70.5752 36.9395 71.6124C42.3836 73.2161 48.0174 74.0855 53.6916 74.1978C57.1336 74.217 60.5705 73.9325 63.9625 73.3478C67.0437 73.6666 69.2395 71.0457 71.9666 72.427C73.6666 70.9395 76.075 71.6124 77.7395 70.5145C78.8729 66.1937 73.4187 69.5582 71.6833 67.5041ZM65.5208 64.8832C64.7416 64.8832 65.6979 63.6791 65.5208 64.8832V64.8832ZM38.4979 25.9249C38.1437 25.9249 38.2145 25.4999 37.9312 25.3937C35.0979 24.0832 39.3124 24.5791 38.4979 26.0666V25.9249ZM62.4395 66.2645C61.1999 65.9812 63.4312 65.3791 62.4395 66.2645V66.2645ZM52.4874 66.6541C51.6729 66.6541 53.1249 66.1582 52.4874 66.6541V66.6541ZM45.8291 62.4749C45.3687 62.4749 45.8291 62.0145 45.8291 62.4749V62.4749ZM45.0499 61.8728C43.7749 61.8728 44.7312 61.0582 45.0499 61.8728V61.8728ZM43.5624 60.5978C42.3937 60.8812 43.5624 59.3937 43.5624 60.5978V60.5978ZM22.3124 19.302C20.4354 18.3103 22.702 20.4707 21.1083 20.4353C20.2583 20.4353 18.6645 18.5937 19.1958 17.6728C20.2583 18.2395 22.1354 18.4166 22.4541 19.4437L22.3124 19.302ZM19.0541 16.4332H18.6645C18.5583 15.477 21.7458 16.2207 19.1958 16.5749L19.0541 16.4332ZM15.4416 13.6353C13.9541 12.9624 15.4416 10.3416 16.9999 11.5812C18.8062 14.1666 13.6354 11.2978 15.4416 13.6353ZM17.177 16.0791C16.2208 16.4687 17.7437 15.3353 17.177 16.0791V16.0791ZM18.877 19.3374C21.002 20.9666 17.6729 19.3374 16.327 20.3645C14.1666 20.577 18.6645 19.1603 18.877 19.3374ZM19.4791 21.4624C20.7187 21.4624 26.1374 19.0187 24.3312 21.2145C25.9958 23.1624 24.6854 22.5249 23.5874 21.2145C24.5791 21.8874 23.7999 24.7562 22.277 22.8082C20.7541 20.8603 20.5062 22.1707 21.6749 23.552C20.5416 21.2499 17.2833 22.2416 14.9104 23.0207C13.3874 22.8791 18.9124 21.7103 19.4791 21.4624ZM12.6791 26.5978C12.1124 28.0145 13.5291 28.4749 14.8749 28.7228C17.0708 28.1207 13.4229 27.7312 15.0874 27.1645C16.0083 27.1645 12.1833 26.2437 15.3708 25.8187C18.5583 25.3937 21.5687 23.977 24.7916 23.3041C27.5226 22.7036 30.3225 22.4772 33.1145 22.6312C34.177 23.8707 32.2999 25.9603 30.3874 26.1728C28.0893 26.912 25.7116 27.3757 23.3041 27.5541C20.4708 27.1999 18.452 29.7145 15.5479 30.0332C16.327 28.6166 14.9104 29.5374 13.4583 29.4666C14.202 32.3707 8.25203 28.7228 11.7583 28.0145C9.13744 27.0937 9.10203 29.8562 9.38536 31.5562C7.08328 28.3332 9.63328 26.9874 12.6791 26.5978ZM19.3374 30.4228C18.5583 30.2457 19.9395 29.7145 19.3374 30.4228V30.4228ZM16.7874 33.5395C16.7874 33.5395 15.5833 33.2562 16.0791 32.9374C19.6208 33.3978 12.8916 31.7687 16.5395 32.1582C18.877 32.0874 18.0979 33.4332 16.7874 33.5395ZM17.9562 34.1416C17.5312 34.5666 17.9562 33.2916 17.9562 34.1416V34.1416ZM15.4416 34.1416C13.8833 33.8228 16.1854 33.3624 15.4416 34.1416V34.1416ZM15.2291 39.2062C14.9812 39.5603 14.8749 38.9228 15.2291 39.2062V39.2062ZM14.1666 38.6041C12.2187 37.9312 14.1666 37.8603 14.1666 38.6041V38.6041ZM13.7416 43.1374C12.8208 42.8187 12.8562 41.3666 12.4312 40.5874C11.0854 36.9395 13.8833 42.0041 13.5999 43.1374H13.7416ZM14.5562 37.8603C12.1124 37.577 14.3791 36.1249 14.5562 37.8603V37.8603ZM14.5562 36.6562H14.2374C11.5458 35.4166 15.8312 36.0541 14.1666 36.6562H14.5562ZM14.1666 33.8582C12.0062 32.7603 16.2208 32.5832 14.1666 33.8582V33.8582ZM14.9104 34.7791C13.7062 34.9916 15.0874 33.6457 14.9104 34.7791V34.7791ZM10.3062 35.027C9.8812 35.3103 10.3062 34.2124 10.3062 35.027V35.027ZM10.6249 34.5312C10.0583 34.5312 10.6249 33.5749 10.6249 34.5312V34.5312ZM10.9083 30.9895C9.49161 30.6353 12.077 30.1041 10.9083 30.9895V30.9895ZM11.8291 38.0728C10.2708 37.7187 11.4041 35.7707 11.8291 38.0728V38.0728ZM12.8916 42.4999C14.3791 44.3062 13.8124 45.2978 15.3354 47.4937C13.352 46.2541 12.9624 43.2437 11.7937 41.2957C10.3416 38.1082 12.6083 41.2603 12.8916 42.4999ZM27.377 65.0957C26.1729 64.8478 25.3583 63.5728 24.5083 62.7582C22.0906 60.9886 20.1745 58.6209 18.9479 55.8874C16.9089 53.2838 15.174 50.4557 13.777 47.4582C12.3249 44.1999 14.6624 47.7062 15.0166 48.9457C15.7604 51.3541 18.1333 52.7353 18.3458 54.3291C20.9666 55.8166 19.6208 58.2957 21.8874 58.9687C22.8437 58.4728 22.9499 61.9437 25.0395 61.2353C23.8708 61.7666 25.4999 62.4041 26.102 63.3957C27.3416 63.2187 30.2458 66.2999 27.377 65.2374V65.0957ZM16.3624 42.4999C15.2645 42.252 17.5312 42.1103 16.3624 42.4999V42.4999ZM17.0708 44.1645C15.1229 43.6687 18.9124 43.4562 17.0708 44.1645V44.1645ZM21.9937 45.8291C23.4104 45.227 22.5604 48.5916 23.9416 49.0166C26.6333 52.5582 22.0645 49.0166 20.3999 48.7687C20.6124 48.7687 19.0541 48.3437 19.727 48.202C19.2312 47.6707 18.1333 45.8645 20.6479 47.0687C22.7729 47.9187 22.9499 47.2812 21.9937 45.6874V45.8291ZM26.6333 52.0624C26.6333 52.5937 24.0833 52.5228 26.4208 53.5499C25.0749 53.5499 24.6499 53.5499 26.4208 54.6124C25.6416 55.2145 27.9437 55.7103 27.1645 56.6312C29.502 58.4728 26.7395 57.0916 25.7479 56.3478C24.7562 55.6041 22.7374 55.1082 23.0916 54.577C25.9604 56.0645 23.8354 54.577 22.5604 53.5145C24.8624 54.0812 20.7541 51.8145 22.9145 52.4166C23.5874 52.5937 21.9583 51.0707 24.0833 52.1687C22.1708 50.327 25.7479 51.7437 26.6333 51.9207V52.0624ZM28.3333 51.4603C26.1729 50.9645 28.3333 50.2562 28.3333 51.4603V51.4603ZM27.7312 58.5437C25.5708 57.6228 29.1124 58.5437 27.7312 58.5437V58.5437ZM26.1374 57.9416C23.6229 57.127 27.9791 57.9416 26.1374 57.9416V57.9416ZM25.8187 58.3312C25.0395 58.3312 25.8187 57.7291 25.8187 58.3312V58.3312ZM21.9937 52.8416C19.4437 51.7791 21.2854 51.6728 21.9937 52.8416V52.8416ZM20.0812 51.602C18.027 50.4332 19.7979 50.4332 20.0812 51.602V51.602ZM20.0812 53.9041C18.0624 52.3457 19.8333 53.0187 20.0812 53.9041V53.9041ZM19.5499 49.1582C18.3104 49.1582 20.0104 48.4499 19.5499 49.1582V49.1582ZM28.3333 61.5541C26.527 61.0228 28.3333 61.0582 28.3333 61.5541V61.5541ZM27.0229 60.2082H26.4562C24.0479 58.2957 27.5541 58.8624 29.1124 59.7124C32.5479 60.2082 28.3333 61.0937 27.0229 60.2082ZM36.5854 66.052C34.177 65.4853 37.152 65.0957 36.5854 66.052V66.052ZM35.9833 64.2103C35.8062 64.2103 35.6291 63.8207 35.9833 64.2103V64.2103ZM32.9374 59.4645C30.8479 58.9687 33.6812 58.7916 34.2124 59.4645C37.8249 60.2083 33.9999 60.3853 32.9374 59.4645ZM33.6812 63.7499H33.2916L32.8312 63.5374C30.8479 61.4478 37.0458 64.5291 33.6812 63.7499ZM32.6895 66.1937C32.1583 66.4062 32.6895 65.6978 32.6895 66.1937V66.1937ZM33.7166 61.9791L33.1499 61.802C30.8124 60.2083 36.125 62.1208 33.7166 61.802V61.9791ZM34.2833 68.0707C32.8666 67.5041 35.2041 67.1853 34.2833 68.0707V68.0707ZM34.6374 65.4499C32.5833 64.9541 35.9124 64.9895 34.6374 65.4499V65.4499ZM35.0979 63.2895C33.5395 63.077 35.2749 62.5457 35.0979 63.2895V63.2895ZM32.5479 60.1728C34.177 60.3853 34.2124 61.1291 32.5479 60.6687C32.2291 60.6687 31.6979 60.6687 31.5562 60.0666C28.8645 58.2957 31.6624 59.1812 32.5479 59.9958V60.1728ZM32.3354 67.2562C31.627 67.6812 32.3354 66.477 32.3354 67.2562V67.2562ZM31.2374 65.4499C29.3604 65.4499 32.6541 64.5291 31.2374 65.4499V65.4499ZM30.8124 66.6895C29.8916 66.3353 31.4145 66.4062 30.8124 66.6895V66.6895ZM31.8749 63.5374C30.0333 63.0416 32.7604 62.8999 31.8749 63.5374V63.5374ZM31.3083 61.5187C30.3166 61.5187 31.0958 60.952 31.3083 61.5187V61.5187ZM29.3958 58.1541C27.377 56.5249 33.5749 59.4999 29.3958 58.1541V58.1541ZM29.1833 58.827C29.1833 59.0395 28.7937 58.5083 29.1833 58.827V58.827ZM42.1104 72.2145C38.9591 71.6521 35.9055 70.6382 33.0437 69.2041L31.8749 68.4958C29.8562 67.3978 30.1041 67.1499 32.0875 68.2478C32.7604 68.8145 37.7187 70.8333 35.3812 69.4874C34.3541 69.2395 28.652 66.1228 32.4062 67.4687C35.5344 69.1272 38.7774 70.5593 42.1104 71.7541C44.9275 72.4226 47.8386 72.6023 50.7166 72.2853C53.0187 73.4541 55.427 72.002 57.7999 73.0291C52.5386 73.6631 47.2075 73.3876 42.0395 72.2145H42.1104ZM37.6833 69.7353C35.877 69.4166 38.2499 68.9207 37.6833 69.7353V69.7353ZM40.2687 66.1937C38.2145 65.8041 42.3937 65.3791 40.2687 66.1937V66.1937ZM43.2437 70.8332C46.7854 72.1437 41.1187 71.2582 39.9499 70.5145C36.6916 69.1687 42.4999 70.8332 43.2437 70.8332ZM39.4895 66.9374C36.6208 66.5124 42.677 66.9374 39.4895 66.9374V66.9374ZM44.8729 69.9478C43.8458 70.7624 44.8729 68.8853 44.8729 69.9478V69.9478ZM45.8999 70.1249C45.3687 70.3374 45.8999 69.5228 45.8999 70.1249V70.1249ZM46.8562 68.7791C46.2895 69.4874 46.8562 67.9645 46.8562 68.7791V68.7791ZM47.9541 68.7791C46.3604 69.3812 49.6187 67.3978 47.9541 68.7791V68.7791ZM48.4499 68.7791C50.1854 67.2916 50.2562 67.9999 50.2208 69.2395C48.6979 70.9395 49.6187 68.5312 48.6624 69.452C47.7062 70.3728 47.9895 69.0978 48.4499 68.8499V68.7791ZM51.3895 70.3728C49.6187 70.3728 53.1958 68.4603 51.3895 70.3728V70.3728ZM51.3895 71.0103C50.6812 71.1874 51.3895 70.5499 51.3895 71.0103V71.0103ZM50.8229 69.7708C49.4416 68.8499 54.152 67.6103 50.8229 69.7708V69.7708ZM52.8416 70.0895H52.5583C52.452 69.2749 54.4708 69.1332 52.8416 70.1603V70.0895ZM53.3729 70.7624C52.3104 70.4791 55.0374 69.3457 53.3729 70.7624V70.7624ZM54.6479 70.4082C52.8416 71.0457 56.3479 68.9916 54.6479 70.4082V70.4082ZM55.427 70.7978L55.002 71.0812C54.1874 70.5853 57.5166 69.3812 55.427 70.8332V70.7978ZM53.9041 68.9207C51.9916 68.2832 48.9458 66.2291 46.8208 67.6103C43.9874 69.4166 48.2729 65.627 45.9708 67.327C43.6333 70.1249 44.377 65.5562 42.1104 66.9374C42.1104 66.5124 40.0916 66.3708 41.5083 65.627C40.2333 65.627 41.0479 65.4499 41.5083 64.4228C40.9416 64.4228 37.9666 64.4228 36.6916 63.3957C35.2749 61.5541 36.9395 62.3332 38.3916 62.5812C36.0187 63.0062 39.2416 64.352 40.7999 63.6082C40.0916 63.2895 39.277 61.7666 37.2583 60.4207C34.82 59.0841 32.3005 57.9012 29.7145 56.8791C26.7395 55.1082 30.352 56.2416 31.3791 57.1624C34.3541 58.4728 33.1854 55.3562 31.3791 54.5416C29.4666 54.5416 29.0062 52.452 27.4833 52.5582C29.8562 52.9478 31.5208 51.9562 28.8645 49.5478C26.2083 47.1395 29.927 51.7791 28.4749 51.1062C27.802 50.2207 28.2979 48.9812 26.1729 48.5207C26.1729 49.3353 25.8895 50.5749 25.4291 48.8749C24.827 48.8749 24.1541 49.6187 23.6583 47.8832C24.1187 45.8645 21.6749 45.4041 21.2854 44.1291C23.4104 45.4749 24.3666 44.4124 22.8791 42.9603C21.3916 41.5082 21.7104 42.5707 21.1437 42.9603C19.0541 45.0853 20.9312 39.4187 20.0104 40.977C19.0895 40.977 19.6208 42.0041 19.6562 43.2791C16.6104 42.5353 20.3645 44.8728 21.2499 46.1478C19.8687 44.7312 20.1166 47.2457 18.9479 46.1478C18.5583 45.0853 18.5229 43.4207 16.5749 43.1374C18.7708 42.3582 15.2999 40.8353 15.5833 40.7645C16.8229 39.6312 16.9999 38.0728 18.4874 40.5166C16.6104 40.5166 18.4874 43.6332 18.9124 42.6416C18.9124 40.977 19.6916 39.0999 16.8229 38.427C15.9729 39.5603 14.5208 36.1957 16.1854 36.9041C15.9729 34.6728 18.8062 35.9832 18.6291 35.027C20.1166 34.3895 16.8583 32.2999 18.6291 31.4853C19.9749 32.3353 23.4458 30.2103 21.1083 29.927C22.5958 29.927 23.7645 30.5645 23.9062 29.077C25.0749 29.3249 28.2979 30.352 25.3937 28.7582C26.6684 28.2399 28.0214 27.9405 29.3958 27.8728C32.1937 25.7124 31.627 31.4145 30.9895 33.0082C32.052 32.2645 31.8395 36.3374 31.4854 37.8603C32.052 37.0812 32.2999 39.1353 31.4854 40.5874C31.4854 40.3395 32.902 40.127 31.9104 41.827C31.1312 40.1624 30.8124 45.3687 31.3083 42.9603C32.6187 40.7999 32.2999 42.9603 32.6895 43.8103C32.9729 45.7582 33.8229 47.5645 34.1062 49.3353C35.3458 50.5749 33.5749 49.7249 33.5749 51.4249C33.9645 50.9291 35.6291 52.0978 35.5937 53.8332C35.5937 51.0707 35.9124 53.1957 37.2583 53.8332C38.164 55.6872 39.3596 57.385 40.7999 58.8624C42.1104 60.3853 40.7999 59.3228 41.2958 60.2437C42.1698 61.45 43.2737 62.4715 44.5441 63.2495C45.8144 64.0276 47.2261 64.5467 48.6979 64.777C49.2433 65.7253 50.0754 66.4762 51.0745 66.9217C52.0737 67.3671 53.1884 67.4842 54.2583 67.2562C52.1333 68.5666 60.2083 68.9207 57.4812 69.6291C56.6666 70.1957 55.2854 68.9207 53.9041 68.9916V68.9207ZM30.8124 56.277C29.9624 56.277 30.8124 55.5687 30.8124 56.277V56.277ZM32.1583 57.0562C31.5208 57.0562 31.7333 56.2062 32.1583 57.0562V57.0562ZM22.9145 44.1291C22.0645 43.8812 23.2687 43.8103 22.9145 44.1291V44.1291ZM20.8249 44.1291C19.9041 44.1291 20.8249 42.9249 20.8249 44.1291V44.1291ZM19.7624 43.8457C19.4083 44.0228 19.7624 43.4562 19.7624 43.8457V43.8457ZM58.7208 73.0645C57.3395 72.8166 59.8541 72.2853 58.7208 73.0645V73.0645ZM61.3062 69.3457H60.2437C60.4562 67.752 64.9541 68.9916 66.7958 69.027C66.2291 70.2312 62.7937 69.1687 61.3062 69.4874V69.3457ZM68.3895 69.3457C67.4333 69.3457 68.8145 68.2124 68.3895 69.3457V69.3457ZM71.9312 69.027C71.0458 69.4874 71.9312 67.9645 71.9312 69.027V69.027ZM73.6312 69.4166C71.7895 68.9916 74.4812 68.9916 75.0479 68.9207C78.377 68.9916 75.0479 69.4874 73.3833 69.4874L73.6312 69.4166Z" fill="#E3E3E3"/>
<path d="M23.0561 25.1817C26.5977 24.4734 21.7102 24.013 20.6123 25.1817C21.2498 25.6421 22.0644 24.438 23.0561 25.1817ZM20.1519 25.6421C20.1519 26.3151 20.7894 24.863 20.1519 25.6421V25.6421ZM29.4311 23.9421C31.804 23.5526 29.8206 22.4901 29.1123 24.2963C29.3602 24.7921 29.5019 24.1192 29.4311 23.9421ZM27.2352 24.2963C30.529 25.5713 27.0581 20.7546 27.2352 24.2963V24.2963ZM16.8936 27.5901C17.3124 27.5688 17.7257 27.694 18.0623 27.9442C20.7186 29.7859 17.7081 24.9692 16.8936 27.5901Z" fill="#E3E3E3"/>
<path d="M17.0361 26.3145C17.6028 26.775 18.0632 25.5708 17.0361 26.3145V26.3145ZM18.3465 26.35L18.8424 26.775C21.2507 26.9875 18.4528 25.1458 18.3465 26.35ZM37.8611 56.6666C38.1799 57.7291 37.8611 55.2854 37.8611 56.6666V56.6666ZM20.932 38.9583C21.2861 39.5958 21.5695 38.3208 20.932 38.9583V38.9583ZM21.2507 41.1187C21.9236 42.3229 21.2507 39.3124 21.2507 41.1187V41.1187ZM21.9945 39.3833C23.1632 40.127 21.0028 37.5416 21.9945 39.3833V39.3833ZM20.5424 36.4791C20.7903 37.0104 21.3924 37.0458 21.8528 37.1874C26.5278 39.3479 18.4882 33.6458 20.5424 36.4791ZM22.4549 41.5437C23.5528 43.4208 23.0924 40.2333 22.4549 41.5437V41.5437ZM24.1549 40.977C25.4653 44.2354 23.3403 40.552 23.0924 39.4541C23.1227 40.6989 23.4636 41.9163 24.0841 42.9958C25.2882 44.802 24.757 42.0041 26.032 43.8104C25.3236 42.2166 26.3861 43.102 26.2445 42.3937C26.1028 41.6854 22.7028 38.2499 24.1549 40.977ZM25.4299 47.2812C25.7486 48.3791 26.0674 47.2812 25.4299 47.2812V47.2812ZM20.7195 31.875C20.932 32.3708 21.109 31.875 20.7195 31.875V31.875ZM23.0924 33.3625C24.2257 34.8145 23.6945 32.0875 23.0924 33.3625V33.3625ZM19.9403 37.4L20.4361 37.9312C23.9424 38.9583 16.7174 34.5666 19.9403 37.4ZM22.4195 36.0895C25.9611 37.5416 22.1007 35.1333 20.8611 35.3812C21.2507 35.8416 21.9945 35.6291 22.4195 36.0895ZM21.782 34.5312C22.4195 35.1687 24.6861 36.3375 22.8799 34.7437C24.0132 34.5312 22.8799 34.177 22.0299 33.6104C20.4715 31.2374 22.2778 33.8229 21.782 34.5312Z" fill="#E3E3E3"/>
<path d="M19.5135 37.6834C17.6364 36.1251 20.0801 38.4271 19.301 38.3917C17.3531 36.9751 18.1676 38.0021 19.301 39.1001C20.4697 40.8709 21.426 38.0376 19.5135 37.6834ZM27.0926 39.9501C27.5176 40.3396 26.8801 37.5417 27.0926 39.9501V39.9501ZM30.7051 27.5542C30.7051 27.9792 30.9531 27.2001 30.7051 27.5542V27.5542ZM31.8739 44.1646C31.8739 44.9084 31.8739 43.5271 31.8739 44.1646V44.1646ZM30.8468 39.8438C31.1301 41.473 31.201 37.0813 30.8468 39.8438V39.8438ZM31.3426 40.623V40.9771C32.0864 39.1709 31.4843 38.1792 31.3426 40.623ZM30.9885 31.0605C30.4926 33.5396 30.0322 32.5126 30.7051 30.6709C30.5281 28.298 29.1114 32.123 29.7489 33.2209C30.776 34.8855 31.8739 29.1126 30.9885 31.0605ZM34.5656 52.2396C35.026 53.4792 34.9551 50.7521 34.5656 52.2396V52.2396ZM29.7843 37.0813C29.7843 37.7896 29.7843 36.5855 29.7843 37.0813V37.0813ZM32.051 43.1021C32.051 44.023 32.4406 41.7563 32.051 43.1021V43.1021ZM33.6447 49.5834L33.8926 49.973C34.3885 48.2376 32.6176 47.1751 33.6447 49.5834ZM28.1197 47.7417C29.076 48.5209 27.6593 46.9271 28.1197 47.7417V47.7417ZM32.476 44.7313C32.7593 45.7584 32.476 43.2438 32.476 44.7313V44.7313ZM28.8281 34.7438C29.3593 35.9126 28.651 33.7876 28.8281 34.7438V34.7438Z" fill="#E3E3E3"/>
<path d="M29.3965 36.2311C30.2465 37.4353 28.4756 33.9644 29.3965 36.2311V36.2311ZM29.184 40.304C28.7235 36.7623 27.6965 41.8978 29.184 42.7478C29.6444 43.9519 30.0694 43.4561 30.2465 42.0748C29.1131 42.0748 30.5298 39.879 29.184 40.304Z" fill="#E3E3E3"/>
</svg>
