<svg width="141" height="64" viewBox="0 0 141 64" fill="none" xmlns="http://www.w3.org/2000/svg">
<rect width="141" height="64" rx="4" fill="#141414"/>
<path d="M78.9352 10.4056L79.2231 10.5977C82.6075 12.8327 85.0341 15.8979 86.6305 19.6017C87.0137 20.1763 86.7583 20.4957 85.9919 20.6871L84.6949 21.0191C81.7627 21.7745 79.436 22.4098 76.5421 23.1652L74.8917 23.595C74.2974 23.7421 74.1335 23.6803 73.5013 22.9605L73.4121 22.8583C72.5107 21.8367 71.8354 21.1543 70.6412 20.5452L70.4109 20.4317C66.388 18.4524 62.4928 19.0269 58.853 21.3897C54.5106 24.1993 52.2756 28.3501 52.3394 33.5225C52.4034 38.6308 55.9154 42.8454 60.9602 43.5478C65.3023 44.1226 68.9421 42.59 71.8157 39.3335C72.3905 38.6308 72.9013 37.8647 73.5397 36.9707H61.2158C59.8748 36.9707 59.5557 36.1407 60.0027 35.0551L60.224 34.5338C61.0447 32.6244 62.3176 29.8799 63.1442 28.3107L63.3245 27.9728C63.5453 27.5901 63.9936 27.0729 64.8556 27.0729H85.4058C86.3287 24.1488 87.8262 21.3859 89.8235 18.7715C94.4851 12.6414 100.104 9.44834 107.703 8.1076C114.217 6.95796 120.347 7.59656 125.903 11.3642C130.947 14.8123 134.076 19.4742 134.907 25.6041C135.992 34.2249 133.502 41.249 127.563 47.2516C123.348 51.53 118.176 54.212 112.237 55.4252C110.513 55.7446 108.789 55.8084 107.129 56C101.318 55.8722 96.0177 54.212 91.5477 50.3806C88.4039 47.6628 86.2383 44.323 85.1622 40.4345C84.407 41.9582 83.509 43.4069 82.4802 44.761C77.8824 50.8276 71.88 54.595 64.281 55.617C58.0231 56.447 52.2121 55.2336 47.1035 51.4022C42.3781 47.8262 39.6961 43.1008 38.9935 37.2263C38.1635 30.2657 40.2069 24.0077 44.4215 18.5161C48.9555 12.5773 54.9579 8.80999 62.3014 7.469C68.1929 6.40337 73.8381 7.06042 78.9354 10.4056H78.9352ZM109.312 19.5562L109.108 19.6017C103.169 20.9427 99.338 24.7101 97.9333 30.7127C96.7836 35.6934 99.2102 40.7383 103.808 42.7816C107.32 44.3142 110.832 44.1226 114.217 42.3984C119.261 39.7805 122.007 35.6934 122.327 30.2019C122.263 29.3719 122.263 28.7331 122.135 28.0945C120.998 21.8439 115.304 18.2774 109.312 19.5562ZM33.8211 31.2235C34.0765 31.2235 34.2043 31.4151 34.2043 31.6705L34.0765 33.2031C34.0765 33.4585 33.8211 33.6501 33.6295 33.6501L19.7087 33.5863C19.4533 33.5863 19.3896 33.3947 19.5171 33.2031L20.4111 31.6067C20.5389 31.4151 20.7943 31.2235 21.0497 31.2235H33.8211ZM35.2259 25.3487C35.4813 25.3487 35.6091 25.5403 35.5453 25.7319L35.0343 27.2645C34.9705 27.5199 34.7151 27.6475 34.4597 27.6475L4.25538 27.7115C3.99999 27.7115 3.93621 27.5837 4.06377 27.3921L5.40477 25.6681C5.53259 25.4765 5.85177 25.3487 6.10716 25.3487H35.2259ZM38.5465 19.4739C38.8019 19.4739 38.8656 19.6655 38.7381 19.8571L37.6525 21.5173C37.5246 21.7089 37.2055 21.9005 37.0139 21.9005L13.898 21.8365C13.6424 21.8365 13.5786 21.7089 13.7061 21.5173L15.0471 19.7934C15.175 19.6017 15.4941 19.4739 15.7495 19.4739H38.5465Z" fill="white"/>
</svg>
