<svg width="72" height="72" viewBox="0 0 72 72" fill="none" xmlns="http://www.w3.org/2000/svg">
<path d="M13.1874 60.7772L8.16675 4.46875H63.3335L58.3061 60.7683L35.7166 67.0312L13.1874 60.7772Z" fill="#E44F26"/>
<path d="M35.75 62.2453L54.0048 57.1844L58.2993 9.07385H35.75V62.2453Z" fill="#F1662A"/>
<path d="M35.75 29.9559H26.6114L25.9813 22.8841H35.75V15.9777H18.4336L18.5989 17.8322L20.2948 36.8624H35.75V29.9559ZM35.75 47.8912L35.7187 47.9002L28.028 45.8244L27.5364 40.3167H20.6032L21.5707 51.1579L35.7187 55.0859L35.75 55.077V47.8912Z" fill="#EBEBEB"/>
<path d="M35.7256 29.9559V36.8624H44.2296L43.4297 45.82L35.7256 47.8979V55.0837L49.8848 51.1579L49.9876 49.9916L51.6098 31.8104L51.7796 29.9559H35.7256ZM35.7256 15.9777V22.8841H52.4074L52.546 21.3335L52.861 17.8322L53.0264 15.9777H35.7256Z" fill="white"/>
</svg>
