<svg width="74" height="74" viewBox="0 0 74 74" fill="none" xmlns="http://www.w3.org/2000/svg">
<path d="M5 4.625H69.75V69.375H5V4.625Z" fill="#F5DE19"/>
<path d="M48.1209 55.2108C48.6726 56.3314 49.5297 57.2734 50.5935 57.928C51.6573 58.5826 52.8844 58.9233 54.1334 58.9108C56.654 58.9108 58.2659 57.6505 58.2659 55.9046C58.2659 53.8233 56.6101 53.0787 53.8351 51.8646L52.3135 51.2125C47.9197 49.3417 45.006 46.9991 45.006 42.0457C45.006 37.4832 48.4747 34.0075 53.916 34.0075C55.6775 33.8803 57.4374 34.2745 58.9762 35.141C60.5151 36.0075 61.7648 37.3079 62.5694 38.8799L57.8126 41.9209C57.5028 41.1414 56.9633 40.4745 56.2658 40.0086C55.5682 39.5428 54.7455 39.2999 53.9068 39.3124C53.5409 39.2757 53.1713 39.3157 52.8217 39.4298C52.4721 39.5439 52.1501 39.7295 51.8762 39.9749C51.6023 40.2203 51.3825 40.5201 51.2308 40.8551C51.0792 41.1902 50.999 41.5531 50.9954 41.9209C50.9954 43.7454 52.1262 44.4854 54.737 45.6209L56.2586 46.273C61.4294 48.4907 64.3523 50.75 64.3523 55.8306C64.3523 61.3089 60.0488 64.3105 54.2699 64.3105C52.0182 64.454 49.7731 63.9427 47.8055 62.8385C45.838 61.7343 44.232 60.0843 43.1814 58.0876L48.1209 55.2108ZM26.6262 55.7381C27.5813 57.4331 28.4508 58.8669 30.5413 58.8669C32.5393 58.8669 33.8019 58.0852 33.8019 55.0443V34.3544H39.8861V55.1252C39.8861 61.4245 36.1861 64.292 30.8003 64.292C28.8965 64.3961 27.0058 63.9216 25.3767 62.931C23.7477 61.9405 22.4565 60.4801 21.6729 58.742L26.6262 55.7381Z" fill="black"/>
</svg>
