<svg width="72" height="64" viewBox="0 0 72 64" fill="none" xmlns="http://www.w3.org/2000/svg">
<g clip-path="url(#clip0_107_265)">
<path d="M59.0829 20.7226C58.3182 20.4602 57.547 20.2171 56.77 19.9936C56.9005 19.4603 57.0206 18.9334 57.1273 18.4158C58.8783 9.91586 57.7336 3.06814 53.8237 0.813547C50.0749 -1.34786 43.9441 0.905898 37.7524 6.29453C37.1422 6.82655 36.5455 7.37391 35.9629 7.93607C35.5729 7.56225 35.1761 7.19569 34.7725 6.83656C28.2832 1.07488 21.7788 -1.35347 17.8731 0.907582C14.1277 3.07572 13.0187 9.51306 14.5951 17.5686C14.7519 18.3665 14.929 19.1602 15.1262 19.949C14.2055 20.2106 13.3171 20.4891 12.4668 20.7855C4.85867 23.4381 0 27.595 0 31.9069C0 36.3602 5.216 40.827 13.1402 43.5355C13.7826 43.7542 14.4304 43.9568 15.0829 44.1432C14.871 44.9928 14.6829 45.8482 14.5187 46.7083C13.0159 54.6241 14.1895 60.9093 17.9248 63.0637C21.7827 65.2885 28.258 63.0019 34.5628 57.4903C35.0741 57.0422 35.5741 56.5815 36.0623 56.1084C36.6932 56.7171 37.3409 57.3082 38.0048 57.8808C44.1123 63.1361 50.144 65.2582 53.8757 63.0979C57.73 60.8666 58.9827 54.1146 57.3563 45.8999C57.2282 45.2563 57.0846 44.6159 56.9255 43.9793C57.3802 43.8446 57.8265 43.7059 58.2616 43.5616C66.4996 40.8324 71.8596 36.4197 71.8596 31.9069C71.8596 27.5793 66.8441 23.3943 59.0829 20.7226ZM57.2963 40.6479C56.9033 40.7779 56.5002 40.9034 56.0893 41.0255C55.1798 38.1463 53.9526 35.085 52.4505 31.9218C53.8838 28.834 55.0639 25.8117 55.9478 22.9514C56.6829 23.1641 57.3962 23.3884 58.0839 23.6251C64.7338 25.9145 68.7899 29.2989 68.7899 31.9069C68.7899 34.6847 64.4093 38.2909 57.2963 40.6479ZM54.345 46.4961C55.0641 50.1284 55.1666 53.4126 54.6902 55.9801C54.2625 58.2872 53.4018 59.8252 52.3374 60.4413C50.073 61.7522 45.23 60.0484 40.007 55.5538C39.3896 55.0214 38.787 54.4719 38.2001 53.906C40.2251 51.6916 42.2487 49.1173 44.2237 46.258C47.6977 45.9498 50.9796 45.4457 53.9559 44.7577C54.0993 45.334 54.229 45.9136 54.345 46.4961ZM24.4985 60.2148C22.286 60.996 20.5238 61.0185 19.4585 60.4043C17.1919 59.0971 16.2495 54.0503 17.5349 47.2809C17.6877 46.481 17.8626 45.6855 18.0595 44.8952C21.0029 45.5465 24.2611 46.0147 27.7432 46.2971C29.7316 49.0948 31.8136 51.6663 33.9119 53.9181C33.466 54.3496 33.0095 54.77 32.5429 55.179C29.7547 57.6161 26.9608 59.3452 24.4985 60.2148ZM14.1333 40.6308C10.6293 39.4331 7.73558 37.8766 5.75214 36.178C3.96968 34.6519 3.07004 33.1364 3.07004 31.9069C3.07004 29.2902 6.97095 25.9526 13.4773 23.6843C14.2669 23.4092 15.0933 23.1495 15.9509 22.9059C16.8502 25.8308 18.0298 28.8891 19.4532 31.9815C18.0112 35.1198 16.8149 38.2269 15.9068 41.1863C15.3112 41.0157 14.7199 40.8305 14.1333 40.6308ZM17.6079 16.9789C16.2574 10.0773 17.1542 4.87109 19.4114 3.56442C21.8153 2.1727 27.1312 4.15699 32.7343 9.13214C33.0997 9.4573 33.4591 9.78905 33.8125 10.1272C31.7246 12.3692 29.6618 14.9216 27.6909 17.7028C24.3113 18.0161 21.0762 18.5191 18.1019 19.1931C17.9186 18.4594 17.7539 17.7212 17.6079 16.9792V16.9789ZM48.6049 24.6331C47.9024 23.4196 47.1738 22.2213 46.4196 21.0392C48.7124 21.3292 50.9092 21.714 52.9721 22.1845C52.3528 24.1696 51.5809 26.2448 50.6723 28.3726C50.0081 27.1124 49.3189 25.8657 48.6049 24.6331ZM35.9644 12.3212C37.3802 13.8552 38.7983 15.5678 40.1931 17.426C37.3637 17.2924 34.5295 17.2918 31.6999 17.4244C33.0961 15.5832 34.5263 13.8729 35.9644 12.3212ZM23.2427 24.6541C22.5376 25.8768 21.8612 27.1158 21.214 28.37C20.3203 26.2499 19.5554 24.1651 18.9308 22.1519C20.9811 21.6933 23.1674 21.3182 25.4456 21.0336C24.6831 22.2229 23.9485 23.43 23.2427 24.6538V24.6541ZM25.511 42.9985C23.1573 42.7358 20.9381 42.3801 18.8884 41.9338C19.5228 39.8847 20.3046 37.7556 21.2177 35.59C21.8675 36.8452 22.5467 38.0849 23.2547 39.3081C23.9829 40.5657 24.7368 41.7974 25.511 42.9985ZM36.0491 51.7087C34.594 50.139 33.1427 48.4023 31.7255 46.5345C33.1015 46.5884 34.5041 46.6159 35.9298 46.6159C37.3945 46.6159 38.8424 46.5831 40.2675 46.5197C38.8682 48.4211 37.4554 50.1604 36.0491 51.7087ZM50.7012 35.4794C51.6618 37.6688 52.4713 39.7867 53.1141 41.8008C51.0307 42.2763 48.7812 42.6592 46.4109 42.9435C47.1705 41.7395 47.906 40.5204 48.617 39.2871C49.3399 38.0335 50.0348 36.7639 50.7012 35.4794ZM45.9579 37.7533C44.8694 39.6442 43.7197 41.4993 42.5106 43.3154C40.3204 43.4706 38.1255 43.5476 35.9298 43.5465C33.6935 43.5465 31.5183 43.4768 29.4237 43.341C28.1831 41.529 27.0114 39.6707 25.9113 37.7702H25.9116C24.8166 35.8797 23.7938 33.9483 22.8455 31.9801C23.7914 30.0116 24.8111 28.0792 25.9023 26.1873L25.902 26.1876C26.9928 24.2952 28.1551 22.4448 29.3864 20.6406C31.5234 20.4789 33.7148 20.3947 35.9295 20.3947H35.9298C38.1547 20.3947 40.3489 20.4798 42.4853 20.6426C43.7042 22.4441 44.859 24.2881 45.9478 26.171C47.0426 28.0588 48.0758 29.9817 49.0456 31.9366C48.0858 33.9116 47.0559 35.8517 45.9579 37.7533ZM52.2905 3.47292C54.6967 4.8607 55.6326 10.4571 54.1207 17.796C54.0241 18.2642 53.9158 18.7411 53.7979 19.2248C50.8163 18.5365 47.5789 18.0248 44.1895 17.7067C42.215 14.895 40.169 12.3386 38.1151 10.1255C38.6534 9.60667 39.2045 9.10125 39.7679 8.60976C45.0731 3.99306 50.0314 2.17018 52.2905 3.47292ZM35.9298 25.49C39.4737 25.49 42.3467 28.363 42.3467 31.9069C42.3467 35.4507 39.4737 38.3237 35.9298 38.3237C32.386 38.3237 29.513 35.4507 29.513 31.9069C29.513 28.363 32.386 25.49 35.9298 25.49Z" fill="#00D8FF"/>
</g>
<defs>
<clipPath id="clip0_107_265">
<rect width="71.8596" height="64" fill="white"/>
</clipPath>
</defs>
</svg>
