<svg width="107" height="64" viewBox="0 0 107 64" fill="none" xmlns="http://www.w3.org/2000/svg">
<path d="M25.4411 16.6822H45.4379V18.2716H27.2741V30.2337H44.3547V31.8231H27.2741V44.9563H45.6462V46.5457H25.4411V16.6822ZM47.2293 16.6822H49.3539L58.7691 29.8154L68.3925 16.6822L81.482 0L59.9772 31.1957L71.0587 46.5457H68.8508L58.7691 32.5759L48.6457 46.5457H46.4794L57.6442 31.1957L47.2293 16.6822ZM71.8503 18.2716V16.6822H94.6383V18.2716H84.14V46.5457H82.3069V18.2716H71.8503ZM0.424316 16.6822H2.71561L34.3113 63.9621L21.2543 46.5457L2.34067 18.9408L2.25735 46.5457H0.424316V16.6822ZM94.4536 44.4766C94.0791 44.4766 93.7982 44.1865 93.7982 43.8115C93.7982 43.4365 94.0791 43.1463 94.4536 43.1463C94.8326 43.1463 95.109 43.4365 95.109 43.8115C95.109 44.1865 94.8326 44.4766 94.4536 44.4766ZM96.2548 42.7267H97.2356C97.249 43.2579 97.6369 43.6151 98.2075 43.6151C98.8451 43.6151 99.2062 43.2311 99.2062 42.5124V37.959H100.205V42.5169C100.205 43.8115 99.4559 44.557 98.2165 44.557C97.0528 44.557 96.2548 43.8338 96.2548 42.7267ZM101.511 42.6687H102.501C102.586 43.2803 103.183 43.6686 104.044 43.6686C104.846 43.6686 105.435 43.2535 105.435 42.682C105.435 42.191 105.06 41.8964 104.209 41.6955L103.379 41.4946C102.216 41.2223 101.685 40.6598 101.685 39.7134C101.685 38.5661 102.621 37.8027 104.026 37.8027C105.332 37.8027 106.286 38.5661 106.344 39.6509H105.372C105.279 39.0571 104.761 38.6866 104.012 38.6866C103.223 38.6866 102.697 39.0661 102.697 39.6464C102.697 40.1062 103.036 40.3696 103.874 40.566L104.583 40.7401C105.903 41.0482 106.447 41.5839 106.447 42.5526C106.447 43.7847 105.493 44.557 103.968 44.557C102.541 44.557 101.583 43.8204 101.511 42.6687Z" fill="white"/>
</svg>
