<svg width="57" height="64" viewBox="0 0 57 64" fill="none" xmlns="http://www.w3.org/2000/svg">
<g clip-path="url(#clip0_107_291)">
<path d="M0.451739 47.9861C0.742048 48.5023 1.16146 48.8896 1.67786 49.1799L26.5217 63.5056C27.5543 64.1185 28.8125 64.1185 29.8128 63.5056L54.6569 49.1799C55.6895 48.5993 56.3024 47.502 56.3024 46.3083V17.6569C56.3024 16.4632 55.6895 15.3661 54.6569 14.7855L29.8128 0.459632C28.7804 -0.153536 27.522 -0.153536 26.5217 0.459632L1.67808 14.7855C0.612948 15.3661 0 16.4632 0 17.6569V46.3404C0 46.9214 0.1291 47.4699 0.451739 47.9861Z" fill="#009639"/>
<path d="M20.1977 42.9205C20.1995 43.3405 20.1181 43.7566 19.9582 44.145C19.7983 44.5333 19.563 44.8862 19.2661 45.1831C18.9691 45.4801 18.6163 45.7153 18.2279 45.8752C17.8396 46.0351 17.4234 46.1165 17.0034 46.1148C16.5835 46.1165 16.1673 46.0351 15.779 45.8752C15.3907 45.7152 15.0379 45.48 14.7409 45.1831C14.444 44.8861 14.2088 44.5333 14.0489 44.1449C13.889 43.7566 13.8076 43.3404 13.8094 42.9205V21.0127C13.8094 19.3025 15.3258 17.9152 17.4228 17.9152C18.9395 17.9152 20.7141 18.5281 21.7788 19.851L22.7465 21.0127L36.1044 36.9837V21.0771C36.1027 20.6571 36.1841 20.241 36.344 19.8526C36.5039 19.4643 36.7391 19.1114 37.0361 18.8145C37.333 18.5175 37.6859 18.2823 38.0742 18.1224C38.4626 17.9625 38.8788 17.8811 39.2987 17.8828C39.7187 17.8811 40.1348 17.9625 40.5232 18.1224C40.9115 18.2824 41.2643 18.5176 41.5612 18.8145C41.8582 19.1115 42.0934 19.4643 42.2533 19.8527C42.4132 20.241 42.4946 20.6572 42.4928 21.0771V42.9851C42.4928 44.6951 40.9764 46.0824 38.8793 46.0824C37.3627 46.0824 35.588 45.4695 34.5234 44.1466L20.1977 27.0461V42.9207V42.9205Z" fill="white"/>
</g>
<defs>
<clipPath id="clip0_107_291">
<rect width="56.3024" height="64" fill="white"/>
</clipPath>
</defs>
</svg>
