<svg width="65" height="64" viewBox="0 0 65 64" fill="none" xmlns="http://www.w3.org/2000/svg">
<g clip-path="url(#clip0_253_38)">
<path d="M32.3244 0.0180664C16.0528 0.0180664 17.0688 7.07438 17.0688 7.07438L17.0868 14.3849H32.6145V16.5798H10.9195C10.9195 16.5798 0.507324 15.3989 0.507324 31.8168C0.507324 48.2352 9.59532 47.6529 9.59532 47.6529H15.019V40.0341C15.019 40.0341 14.7266 30.9461 23.9619 30.9461H39.3626C39.3626 30.9461 48.0151 31.0859 48.0151 22.5837V8.5258C48.0151 8.5258 49.3293 0.0180664 32.3244 0.0180664ZM23.7624 4.93427C24.1293 4.93394 24.4927 5.00597 24.8318 5.14623C25.1709 5.2865 25.4789 5.49225 25.7384 5.7517C25.9978 6.01116 26.2036 6.31924 26.3439 6.6583C26.4841 6.99736 26.5562 7.36075 26.5558 7.72768C26.5562 8.09461 26.4841 8.458 26.3439 8.79706C26.2036 9.13613 25.9978 9.4442 25.7384 9.70366C25.4789 9.96312 25.1709 10.1689 24.8318 10.3091C24.4927 10.4494 24.1293 10.5214 23.7624 10.5211C23.3955 10.5214 23.0321 10.4494 22.693 10.3091C22.354 10.1689 22.0459 9.96312 21.7864 9.70366C21.527 9.4442 21.3212 9.13613 21.181 8.79706C21.0407 8.458 20.9687 8.09461 20.969 7.72768C20.9687 7.36075 21.0407 6.99736 21.181 6.6583C21.3212 6.31924 21.527 6.01116 21.7864 5.7517C22.0459 5.49225 22.354 5.2865 22.693 5.14623C23.0321 5.00597 23.3955 4.93394 23.7624 4.93427Z" fill="url(#paint0_linear_253_38)"/>
<path d="M32.7864 63.7804C49.0579 63.7804 48.042 56.7241 48.042 56.7241L48.0239 49.4138H32.496V47.219H54.191C54.191 47.219 64.6031 48.3999 64.6031 31.9815C64.6031 15.5633 55.5151 16.1456 55.5151 16.1456H50.0915V23.7641C50.0915 23.7641 50.3838 32.8521 41.1485 32.8521H25.7479C25.7479 32.8521 17.0953 32.7123 17.0953 41.2148V55.273C17.0953 55.273 15.7814 63.7804 32.7861 63.7804H32.7864ZM41.3483 58.8647C40.9814 58.8651 40.618 58.793 40.2789 58.6528C39.9399 58.5125 39.6318 58.3068 39.3723 58.0473C39.1129 57.7878 38.9071 57.4798 38.7669 57.1407C38.6266 56.8016 38.5546 56.4383 38.5549 56.0713C38.5545 55.7044 38.6265 55.341 38.7668 55.0019C38.907 54.6628 39.1128 54.3547 39.3722 54.0952C39.6317 53.8357 39.9398 53.6299 40.2789 53.4897C40.6179 53.3494 40.9814 53.2773 41.3483 53.2777C41.7152 53.2773 42.0786 53.3494 42.4177 53.4896C42.7567 53.6299 43.0648 53.8356 43.3243 54.0951C43.5837 54.3546 43.7895 54.6626 43.9298 55.0017C44.07 55.3408 44.142 55.7041 44.1417 56.0711C44.142 56.438 44.07 56.8014 43.9298 57.1405C43.7895 57.4795 43.5837 57.7876 43.3243 58.0471C43.0648 58.3065 42.7567 58.5123 42.4177 58.6525C42.0786 58.7928 41.7152 58.8648 41.3483 58.8645V58.8647Z" fill="url(#paint1_linear_253_38)"/>
</g>
<defs>
<linearGradient id="paint0_linear_253_38" x1="6.66692" y1="5.75313" x2="38.4309" y2="37.2002" gradientUnits="userSpaceOnUse">
<stop stop-color="#387EB8"/>
<stop offset="1" stop-color="#366994"/>
</linearGradient>
<linearGradient id="paint1_linear_253_38" x1="26.1636" y1="25.9464" x2="60.2744" y2="58.1924" gradientUnits="userSpaceOnUse">
<stop stop-color="#FFE052"/>
<stop offset="1" stop-color="#FFC331"/>
</linearGradient>
<clipPath id="clip0_253_38">
<rect width="64.251" height="64" fill="white" transform="translate(0.470703)"/>
</clipPath>
</defs>
</svg>
