<svg width="68" height="64" viewBox="0 0 68 64" fill="none" xmlns="http://www.w3.org/2000/svg">
<path d="M46.7111 44.6971C49.1988 44.4395 51.0862 42.2949 51.0003 39.7211C50.9147 37.1475 48.7699 35.0884 46.1963 35.0884H46.0248C43.3651 35.1743 41.3063 37.4047 41.3922 40.0642C41.478 41.3511 41.9926 42.4664 42.7647 43.2385C39.848 48.9866 35.387 53.1903 28.6956 56.7077C24.1488 59.1098 19.4306 59.9678 14.7124 59.3674C10.8519 58.8525 7.8493 57.1369 5.9617 54.3055C3.21667 50.1018 2.95939 45.5548 5.2757 41.008C6.90576 37.7479 9.4791 35.3457 11.1092 34.1446C10.766 33.0294 10.2512 31.142 9.99392 29.7695C-2.44536 38.7775 -1.15843 50.9598 2.61626 56.7077C5.44714 60.9974 11.195 63.6569 17.5433 63.6569C19.2589 63.6569 20.9746 63.4852 22.6905 63.0565C33.6714 60.9116 41.9929 54.3913 46.7111 44.6971ZM61.8098 34.059C55.2898 26.4236 45.6817 22.2199 34.7008 22.2199H33.3283C32.5562 20.6757 30.9261 19.646 29.1246 19.646H28.9529C26.2937 19.7319 24.235 21.9624 24.3205 24.6221C24.4064 27.1957 26.551 29.2547 29.1246 29.2547H29.296C31.1834 29.1689 32.8134 27.9678 33.4997 26.3377H35.0439C41.5639 26.3377 47.7405 28.2251 53.3169 31.9142C57.6062 34.7453 60.6946 38.4344 62.4102 42.8953C63.8686 46.4986 63.7827 50.016 62.2385 53.0188C59.8366 57.5656 55.8047 60.0536 50.4858 60.0536C47.0542 60.0536 43.7944 59.024 42.0785 58.2519C41.1349 59.1098 39.419 60.4823 38.2179 61.3406C41.907 63.0562 45.6817 64 49.2847 64C57.5203 64 63.6113 59.453 65.9276 54.9062C68.4154 49.9301 68.2437 41.3511 61.8098 34.059ZM18.2295 46.1552C18.3154 48.7291 20.46 50.7878 23.0336 50.7878H23.2053C25.8648 50.7022 27.9235 48.4715 27.8377 45.8121C27.7521 43.2382 25.6072 41.1794 23.0336 41.1794H22.8622C22.6905 41.1794 22.4329 41.1794 22.2618 41.265C18.7444 35.4313 17.286 29.083 17.8008 22.2196C18.1437 17.0722 19.8596 12.611 22.8622 8.92188C25.3499 5.74761 30.154 4.2034 33.4141 4.11781C42.5074 3.94611 46.3677 15.2704 46.6252 19.8175C47.7405 20.0748 49.6278 20.6754 50.9147 21.1044C49.8851 7.2065 41.3063 0 33.071 0C25.3499 0 18.2295 5.57644 15.3984 13.8123C11.4523 24.7935 14.0259 35.3457 18.83 43.6674C18.4012 44.2678 18.1437 45.2116 18.2295 46.1554V46.1552Z" fill="#764ABC"/>
</svg>
